<svg xmlns="http://www.w3.org/2000/svg" version="1.0" width="512.000000pt" height="512.000000pt" viewBox="0 0 512.000000 512.000000" preserveAspectRatio="xMidYMid meet">

<g transform="translate(0.000000,512.000000) scale(0.100000,-0.100000)" fill="#fdfdfd" stroke="none">
<path d="M1218 4810 c-220 -39 -397 -203 -452 -416 -68 -264 79 -554 330 -652 l49 -20 5 -603 5 -604 31 -65 c37 -79 79 -128 142 -168 89 -57 125 -62 457 -62 l301 0 -1 -78 c-2 -143 -54 -203 -215 -252 -36 -11 -204 -42 -374 -70 -170 -28 -331 -57 -358 -65 -189 -56 -325 -213 -377 -435 -40 -171 -60 -549 -42 -815 9 -146 12 -162 32 -178 19 -15 25 -16 42 -4 19 13 20 25 22 407 2 418 9 501 54 633 48 140 138 244 245 285 58 22 249 60 411 82 320 43 457 79 532 141 l46 37 50 -40 c70 -55 174 -106 265 -129 188 -48 383 0 525 131 l51 47 40 -31 c22 -17 46 -36 54 -43 32 -30 285 -91 452 -108 108 -12 346 -54 407 -73 161 -51 253 -152 303 -334 37 -140 44 -230 45 -622 l1 -379 21 -8 c15 -6 28 -3 43 9 18 15 21 35 30 209 11 195 1 517 -21 667 -42 304 -159 465 -395 546 -31 11 -154 36 -273 55 -438 71 -515 89 -595 144 -58 40 -86 98 -93 196 l-6 75 315 0 c349 0 378 4 473 64 64 42 101 85 136 161 39 86 42 109 21 135 -14 18 -25 21 -45 16 -21 -5 -29 -16 -41 -59 -27 -94 -86 -162 -176 -205 -32 -16 -125 -17 -1130 -17 l-1095 0 -47 23 c-64 32 -116 85 -147 151 l-26 56 -3 578 -3 577 80 0 c243 0 461 169 527 409 l17 61 909 0 c998 0 938 4 992 -61 15 -17 25 -33 23 -35 -2 -2 -18 1 -36 7 -43 15 -124 5 -165 -20 -69 -43 -97 -151 -56 -218 58 -95 204 -104 293 -18 20 19 38 35 41 35 3 0 11 -19 17 -42 13 -47 13 -237 3 -715 -7 -313 -6 -323 41 -323 47 0 48 3 57 505 10 526 9 550 -52 648 -19 30 -30 62 -30 85 -1 79 -63 174 -142 217 l-52 28 -916 -2 -916 -2 -16 87 c-50 266 -255 450 -520 468 -40 3 -94 1 -120 -4z m233 -110 c148 -50 249 -152 299 -301 18 -53 21 -81 18 -164 -3 -87 -8 -109 -36 -168 -140 -298 -524 -369 -752 -138 -181 184 -187 454 -13 642 96 103 198 148 341 148 58 1 101 -5 143 -19z m2317 -730 c32 -20 33 -22 19 -43 -21 -33 -76 -67 -107 -67 -34 0 -80 35 -80 61 0 11 11 31 25 44 31 32 95 34 143 5z m-845 -1832 c3 -46 9 -95 13 -110 5 -23 -1 -35 -49 -83 -163 -162 -423 -175 -640 -31 -87 58 -90 64 -76 135 6 33 9 85 7 116 l-5 55 372 0 372 0 6 -82z" fill="#fdfdfd"/>
<path d="M1056 4471 c-28 -31 -12 -55 74 -113 44 -29 79 -56 80 -59 0 -4 -36 -30 -80 -59 -43 -29 -82 -60 -85 -70 -8 -26 5 -50 32 -56 20 -5 45 8 126 63 157 109 158 137 3 242 -58 39 -111 71 -119 71 -8 0 -22 -9 -31 -19z" fill="#fdfdfd"/>
<path d="M1332 4218 c-7 -7 -12 -21 -12 -33 0 -40 17 -45 157 -45 123 0 133 1 143 21 9 16 8 26 -5 45 -15 23 -19 24 -143 24 -86 0 -132 -4 -140 -12z" fill="#fdfdfd"/>
<path d="M4101 3558 c-5 -13 -5 -30 0 -40 5 -9 76 -54 159 -99 147 -82 149 -84 131 -104 -184 -209 -221 -255 -221 -278 0 -33 31 -52 59 -38 32 18 301 330 301 350 0 25 -20 38 -212 144 -165 91 -203 103 -217 65z" fill="#fdfdfd"/>
<path d="M899 3540 c-24 -17 -102 -76 -174 -133 -103 -81 -130 -108 -130 -127 0 -19 36 -54 169 -167 93 -79 177 -143 187 -143 20 0 49 26 49 44 0 21 -20 40 -157 154 l-132 110 140 108 c120 92 140 111 137 132 -2 14 -12 31 -24 38 -18 13 -25 11 -65 -16z" fill="#fdfdfd"/>
<path d="M1845 3507 c-77 -37 -150 -122 -176 -209 -61 -201 64 -377 252 -355 64 8 99 30 99 61 0 39 -23 50 -82 38 -114 -22 -191 39 -191 155 0 121 127 267 195 224 40 -25 90 19 68 60 -12 22 -66 49 -97 49 -10 0 -41 -11 -68 -23z" fill="#fdfdfd"/>
<path d="M3285 3511 c-23 -10 -53 -33 -68 -50 l-27 -33 0 -243 c0 -268 2 -279 58 -259 26 9 27 12 30 92 2 45 6 82 10 82 18 0 124 -105 148 -145 14 -24 34 -47 45 -50 24 -8 59 19 59 45 0 23 -50 98 -98 146 l-41 40 34 27 c65 52 95 172 64 254 -22 59 -95 113 -151 113 -13 0 -41 -9 -63 -19z m90 -87 c21 -8 45 -56 45 -89 0 -55 -53 -120 -108 -131 l-32 -6 0 100 c0 93 2 102 22 116 24 17 46 20 73 10z" fill="#fdfdfd"/>
<path d="M2482 3489 c-23 -12 -47 -30 -53 -40 -6 -13 -6 -79 1 -202 5 -100 10 -203 10 -229 0 -77 37 -95 133 -62 185 63 270 342 149 486 -56 66 -160 86 -240 47z m164 -113 c66 -70 50 -193 -36 -278 -65 -66 -80 -64 -80 10 0 33 -3 113 -6 179 -7 113 -6 121 12 126 38 11 79 -3 110 -37z" fill="#fdfdfd"/>
<path d="M2126 3470 c-70 -62 -123 -206 -113 -312 6 -72 47 -148 97 -183 88 -61 210 -35 258 55 22 41 23 54 20 160 -5 136 -25 193 -93 260 -34 33 -52 43 -87 47 -40 5 -49 2 -82 -27z m126 -115 c50 -72 64 -249 23 -295 -22 -24 -81 -27 -113 -4 -68 47 -69 203 -2 312 27 44 55 40 92 -13z" fill="#fdfdfd"/>
<path d="M2904 3464 c-12 -3 -32 -16 -45 -30 -23 -25 -24 -31 -28 -225 -1 -110 0 -210 3 -223 9 -37 53 -49 148 -41 101 9 118 17 118 55 0 40 -22 49 -107 43 l-73 -6 0 65 0 66 78 7 c84 8 102 16 102 49 0 37 -19 46 -97 46 l-73 0 0 50 0 50 73 0 c77 0 97 9 97 45 0 42 -15 50 -97 52 -43 0 -88 -1 -99 -3z" fill="#fdfdfd"/>
</g>
</svg>